PathFileType	4	(X/Y/Z)	C:/Users/opensim2020/Desktop/walking_exp_matlab/subject03_walking10_straight_01.trc	
DataRate	CameraRate	NumFrames	NumMarkers	Units	OrigDataRate	OrigDataStartFrame	OrigNumFrames	
100.00	100.00	5	45	mm	100.00	957	477	
Frame#	Time	LFHD			RFHD			LBHD			RBHD			C7			T10			CLAV			STRN			RBAK			LSHO			LUPA			LELB			LFRM			LWRA			LWRB			LFIN			RSHO			RUPA			RELB			RFRM			RWRA			RWRB			RFIN			LASI			RASI			LPSI			RPSI			LTHI			LKNE			LTIB			LANK			LHEE			LTOE			RTHI			RKNE			RTIB			RANK			RHEE			RTOE			*39			*40			*41			*42			*43			*44			
		X1	Y1	Z1	X2	Y2	Z2	X3	Y3	Z3	X4	Y4	Z4	X5	Y5	Z5	X6	Y6	Z6	X7	Y7	Z7	X8	Y8	Z8	X9	Y9	Z9	X10	Y10	Z10	X11	Y11	Z11	X12	Y12	Z12	X13	Y13	Z13	X14	Y14	Z14	X15	Y15	Z15	X16	Y16	Z16	X17	Y17	Z17	X18	Y18	Z18	X19	Y19	Z19	X20	Y20	Z20	X21	Y21	Z21	X22	Y22	Z22	X23	Y23	Z23	X24	Y24	Z24	X25	Y25	Z25	X26	Y26	Z26	X27	Y27	Z27	X28	Y28	Z28	X29	Y29	Z29	X30	Y30	Z30	X31	Y31	Z31	X32	Y32	Z32	X33	Y33	Z33	X34	Y34	Z34	X35	Y35	Z35	X36	Y36	Z36	X37	Y37	Z37	X38	Y38	Z38	X39	Y39	Z39	X40	Y40	Z40	X41	Y41	Z41	X42	Y42	Z42	X43	Y43	Z43	X44	Y44	Z44	X45	Y45	Z45	

299	2.980	1364.02209	300.25403	1613.25452	1496.21875	283.96268	1620.11902	1354.07800	170.20502	1576.09070	1484.98584	159.04163	1582.36633	1408.81519	125.86420	1418.68738	1411.09058	81.98514	1105.99646	1421.98413	242.90410	1337.08801	1419.61426	281.80902	1171.37988	1498.02917	55.29688	1244.63220	1263.31494	214.49449	1375.69995	1184.49988	231.45631	1185.02014	1168.22766	261.55441	1067.21338	1173.27454	323.02725	953.27228	1208.26697	373.69623	847.74536	1155.78943	355.69995	845.37451	1167.41455	399.19730	774.58826	1576.38794	180.28397	1363.53003	1647.65991	168.64024	1140.79883	1662.70544	183.55644	1029.19910	1666.53162	203.95895	893.66632	1635.56628	242.02817	799.98059	1674.26392	204.50381	793.35999	1667.56616	231.34435	723.35846	1300.21606	246.14229	938.81775	1538.31604	237.10657	937.04089	1346.62012	82.94563	968.51666	1494.98523	78.31514	968.41443	1269.79858	162.56856	641.29205	1312.49097	143.58932	465.22278	1313.85938	72.81606	281.98871	1359.87817	37.87743	73.59157	1396.90881	-4.38627	39.96577	1387.32410	188.97214	34.05439	1589.96765	237.39105	645.89301	1558.30505	317.07071	483.47525	1565.48315	307.25296	295.86050	1526.75720	324.71436	79.08215	1470.38623	287.96667	43.47596	1519.34998	464.70993	49.24111	1406.59290	214.59219	1678.74646															 
300	2.990	1365.17957	306.85123	1612.50159	1497.35828	290.45654	1619.22290	1355.07397	176.81688	1575.39539	1485.89514	165.57593	1581.57361	1409.57776	132.34126	1417.99329	1411.65552	88.36311	1105.26990	1422.73499	249.40726	1336.27002	1420.26318	288.21298	1170.54810	1498.44641	61.80583	1243.80835	1264.12366	221.21317	1375.04810	1185.35767	238.55518	1184.50354	1169.36646	268.43726	1066.52087	1174.99487	330.71283	953.14777	1210.66003	382.06058	848.21625	1158.09973	364.14743	845.34882	1170.21655	408.33496	775.13324	1577.14148	186.57489	1362.58618	1647.91357	174.55803	1139.73169	1662.71399	189.13503	1028.08801	1666.41052	208.90556	892.46570	1635.39746	246.75676	798.59924	1673.99194	209.07338	792.07800	1667.24353	235.63702	721.98682	1300.62524	252.34184	938.18945	1538.67822	243.70706	936.27435	1347.26111	89.10135	967.66339	1495.62549	84.77737	967.57971	1270.10339	167.54462	640.82782	1312.59204	147.50775	464.95660	1313.72510	75.23135	282.16977	1359.88782	38.24487	74.03671	1396.96069	-4.28505	40.67958	1387.29456	189.09087	33.98119	1590.39795	243.54492	645.02191	1557.94360	323.52258	482.71301	1565.34949	318.50513	295.33911	1526.63049	342.68286	78.85748	1470.04846	307.62112	43.03625	1519.49622	484.12878	51.27351	1407.53235	221.11497	1677.90320															 
301	3.000	1366.33630	313.62241	1611.88745	1498.51331	296.98041	1618.33765	1356.12268	183.53130	1574.72107	1486.88623	172.20860	1580.75378	1410.37463	139.01961	1417.18689	1412.29004	94.81594	1104.53247	1423.62830	255.98479	1335.41931	1420.84521	294.63107	1169.66077	1498.94434	68.36348	1242.94360	1264.94543	227.99492	1374.38782	1186.33252	245.53577	1183.85596	1170.57800	275.47540	1065.81128	1176.80457	338.21768	952.79742	1213.17297	390.14066	848.47534	1160.65234	372.36874	845.15796	1173.12830	417.11353	775.47241	1577.95251	192.93724	1361.65088	1648.25842	180.60928	1138.65833	1662.93164	194.75163	1026.99072	1666.27844	213.90515	891.19446	1635.28552	251.66731	797.24860	1673.69812	213.78671	790.77277	1666.87769	240.03812	720.58069	1301.05872	258.71655	937.59711	1539.04626	250.38416	935.42407	1347.97278	95.25964	966.88300	1496.27759	91.38653	966.61426	1270.48877	172.60382	640.43036	1312.64233	151.72655	464.59271	1313.94580	77.41247	282.35947	1359.87610	38.65437	74.50643	1396.91577	-4.29312	41.49522	1387.14514	189.12869	33.86776	1590.93079	249.71825	644.14459	1557.82910	329.77289	481.79471	1565.19006	329.03311	294.77103	1526.76428	360.01312	78.97385	1470.15173	326.14050	42.82281	1519.58484	502.69263	54.03830	1408.90466	227.81010	1677.24890															 
302	3.010	1367.54407	320.25977	1611.04590	1499.62048	303.45840	1617.42297	1357.17627	190.27490	1573.97656	1488.02087	178.83638	1579.88000	1411.27368	145.72101	1416.42175	1413.06860	101.34618	1103.74707	1424.48145	262.60104	1334.52014	1421.49048	301.10712	1168.78259	1499.53223	74.97025	1242.07520	1265.86731	234.84747	1373.69543	1187.39001	252.46016	1183.09302	1171.93384	282.51596	1065.17126	1178.75146	345.61258	952.35889	1215.72070	397.92142	848.50214	1163.20667	380.32370	844.83252	1176.17639	425.53445	775.60345	1578.83740	199.42805	1360.66443	1648.74683	186.82303	1137.64954	1662.90283	200.74426	1025.72180	1666.26392	219.40622	889.89868	1635.07703	256.60446	795.82043	1673.59802	218.51262	789.53717	1666.51025	244.49727	719.09125	1301.58179	265.19031	937.04083	1539.48291	257.20853	934.53650	1348.76685	101.62890	965.98096	1497.03967	98.01769	965.66083	1270.92175	177.84206	640.05273	1312.72485	155.67473	464.13312	1313.94019	79.86176	282.52426	1359.85327	39.07931	74.96084	1396.72778	-4.13540	42.37523	1386.90063	189.35030	33.90104	1591.16528	256.35001	643.17249	1557.66919	335.98874	480.69385	1565.03223	338.90509	294.19348	1527.04688	376.52164	79.22034	1470.15723	343.72137	42.56363	1519.74048	520.14105	57.04817	1409.98926	234.51494	1676.15894															 
303	3.020	1368.84644	326.99957	1610.27148	1501.02112	310.29617	1616.61804	1358.32104	197.02371	1573.26416	1489.07910	185.56143	1579.01233	1412.20007	152.45160	1415.65173	1413.96155	107.82597	1102.95728	1425.37463	269.34781	1333.71472	1422.12244	307.65134	1167.87561	1500.22058	81.69270	1241.17725	1266.77832	241.72063	1372.96936	1188.50049	259.40039	1182.33228	1173.31665	289.54672	1064.38928	1180.82703	352.86792	951.83044	1218.43494	405.50793	848.42120	1165.83142	388.03000	844.36658	1179.24585	433.57068	775.44586	1579.73083	206.16315	1359.65808	1649.16699	193.13516	1136.42322	1663.17212	206.85048	1024.56787	1666.16675	224.65685	888.64423	1634.88867	261.68915	794.40985	1673.22876	223.74629	788.19373	1666.15784	249.31898	717.72650	1301.90308	271.46255	936.38092	1540.01086	264.18564	933.66870	1349.62842	108.05311	965.04486	1497.94873	104.72102	964.65344	1271.19983	183.23271	639.68359	1312.76123	160.05757	463.79602	1313.90259	82.42126	282.76541	1359.72742	39.46331	75.46505	1396.54492	-3.93747	43.36861	1387.32104	189.33823	33.67236	1591.43933	262.95105	642.28552	1557.55872	342.08847	479.55264	1564.91187	348.31610	293.53091	1527.40967	392.02783	79.59341	1470.35547	360.21121	42.36411	1519.91528	536.38770	60.01420	1411.14783	241.25101	1675.30640															 
